<?xml version="1.0" encoding="iso-8859-1"?>
<!-- Generator: Adobe Illustrator 19.0.0, SVG Export Plug-In . SVG Version: 6.00 Build 0)  -->
<svg version="1.1" id="Capa_1" xmlns="http://www.w3.org/2000/svg" xmlns:xlink="http://www.w3.org/1999/xlink" x="0px" y="0px"
	 viewBox="0 0 512 512" style="enable-background:new 0 0 512 512;" xml:space="preserve">
<path style="fill:#42516D;" d="M361.026,240c-8.291,0-15-6.709-15-15V45c0-8.291,6.709-15,15-15h60c24.814,0,45,20.186,45,45v60
	C466.026,192.891,418.916,240,361.026,240z M376.026,60v148.491c34.189-6.973,60-37.266,60-73.491V75c0-8.276-6.724-15-15-15
	H376.026z"/>
<path style="fill:#495A79;" d="M370.025,459.5l-20.099-122c-3.6-21.601-22.2-37.5-44.399-37.5H176.525
	c-22.2,0-40.8,15.899-44.399,37.5l-20.099,122c-2.1,13.2,1.5,26.4,10.199,36.599c8.401,10.201,21,15.901,34.2,15.901h169.2
	c13.2,0,25.8-5.7,34.2-15.901C368.526,485.9,372.126,472.7,370.025,459.5z"/>
<path style="fill:#42516D;" d="M359.826,496.099c-8.401,10.201-21,15.901-34.2,15.901h-84.6V300h64.501
	c22.2,0,40.8,15.899,44.399,37.5l20.099,122C372.126,472.7,368.526,485.9,359.826,496.099z"/>
<path style="fill:#E1E4FB;" d="M376.026,15v163.5l-49.2,42.599c-25.499,23.101-57.299,28.5-85.8,15.899
	c-8.401-3.6-16.8-9-24.3-15.899c-21.601-19.501-48.3-19.501-69.901,0l-40.8-21.899v-89.702l-57.599-86.1
	C45.425,18.6,45.125,12.9,47.826,7.8c2.701-4.801,7.8-7.8,13.2-7.8h300C369.427,0,376.026,6.599,376.026,15z"/>
<path style="fill:#C5C9F7;" d="M376.026,15v163.5l-49.2,42.599c-25.499,23.101-57.299,28.5-85.8,15.899V0h120
	C369.427,0,376.026,6.599,376.026,15z"/>
<path style="fill:#FE52A2;" d="M376.026,178.5V255c0,5.099-0.601,10.199-1.5,15c-6.901,34.2-37.2,60-73.5,60h-120
	c-41.4,0-75-33.6-75-75v-55.8c9,4.499,15.601,4.499,20.7-0.3c32.999-30,77.1-30,110.099,0c1.201,1.199,2.701,2.399,4.2,3.3
	c20.7,16.5,45.601,15.3,65.7-3.3c3.3-3.001,6.599-5.7,9.901-7.8c7.2-5.099,15-8.701,22.8-11.1
	C351.425,176.7,363.726,176.1,376.026,178.5z"/>
<path style="fill:#FE318F;" d="M376.026,178.5V255c0,5.099-0.601,10.199-1.5,15c-6.901,34.2-37.2,60-73.5,60h-60V202.2
	c20.7,16.5,45.601,15.3,65.7-3.3c3.3-3.001,6.599-5.7,9.901-7.8c7.2-5.099,15-8.701,22.8-11.1
	C351.425,176.7,363.726,176.1,376.026,178.5z"/>
<path style="fill:#1DE8F1;" d="M241.026,361c-24.901,0-45,20.099-45,45c0,24.899,20.099,45,45,45s45-20.101,45-45
	C286.026,381.099,265.926,361,241.026,361z"/>
<g>
	<path style="fill:#A8AFF1;" d="M376.026,60v30h-45c-8.401,0-15-6.601-15-15c0-8.401,6.599-15,15-15H376.026z"/>
	<path style="fill:#A8AFF1;" d="M376.026,120v30h-45c-8.401,0-15-6.601-15-15c0-8.401,6.599-15,15-15H376.026z"/>
</g>
<path style="fill:#1BD9DE;" d="M286.026,406c0,24.899-20.099,45-45,45v-90C265.926,361,286.026,381.099,286.026,406z"/>
<g>
</g>
<g>
</g>
<g>
</g>
<g>
</g>
<g>
</g>
<g>
</g>
<g>
</g>
<g>
</g>
<g>
</g>
<g>
</g>
<g>
</g>
<g>
</g>
<g>
</g>
<g>
</g>
<g>
</g>
</svg>
