<?xml version="1.0" encoding="iso-8859-1"?>
<!-- Generator: Adobe Illustrator 19.0.0, SVG Export Plug-In . SVG Version: 6.00 Build 0)  -->
<svg version="1.1" id="Capa_1" xmlns="http://www.w3.org/2000/svg" xmlns:xlink="http://www.w3.org/1999/xlink" x="0px" y="0px"
	 viewBox="0 0 512 512" style="enable-background:new 0 0 512 512;" xml:space="preserve">
<path style="fill:#FEC000;" d="M299.51,53.173c0,23.99-19.52,43.51-43.51,43.51s-43.51-19.52-43.51-43.51S232.01,9.663,256,9.663
	S299.51,29.183,299.51,53.173z"/>
<g>
	<rect x="40" y="226.188" style="fill:#FFC373;" width="432" height="220.5"/>
	<rect x="84.1" y="66.688" style="fill:#FFC373;" width="343.8" height="189.5"/>
</g>
<rect y="416.688" style="fill:#C8C6CD;" width="512" height="85.65"/>
<rect x="256" y="66.688" style="fill:#FFB74F;" width="171.9" height="189.5"/>
<path style="fill:#FFA81F;" d="M256,96.683V9.663c23.99,0,43.51,19.52,43.51,43.51S279.99,96.683,256,96.683z"/>
<rect x="256" y="226.188" style="fill:#FFB74F;" width="216" height="220.5"/>
<rect x="256" y="416.688" style="fill:#AEADB3;" width="256" height="85.65"/>
<g>
	<path style="fill:#FF5A81;" d="M472,226.182v73.09h-79.5v18.17c0,17.4-14.1,31.5-31.5,31.5c-8.7,0-16.58-3.53-22.28-9.23
		s-9.22-13.57-9.22-22.27v-18.17h-55v24.82c0,12.77-7.59,23.76-18.5,28.71c-3.97,1.79-8.37,2.79-13,2.79
		c-8.7,0-16.58-3.52-22.28-9.22s-9.22-13.58-9.22-22.28v-24.82H40v-73.09H472z"/>
	<path style="fill:#FF5A81;" d="M427.9,66.683v66.05h-75.45v15.68c0,15.46-12.53,28-28,28c-7.73,0-14.73-3.14-19.8-8.2
		c-5.07-5.07-8.2-12.07-8.2-19.8v-15.68h-59v22.33c0,15.46-12.53,28-28,28c-7.73,0-14.73-3.13-19.8-8.2
		c-5.07-5.07-8.2-12.07-8.2-19.8v-22.33H84.1v-66.05L427.9,66.683L427.9,66.683z"/>
</g>
<g>
	<path style="fill:#FF0536;" d="M296.45,132.732H256v-66.05h171.9v66.05h-75.45v15.68c0,15.46-12.53,28-28,28
		c-7.73,0-14.73-3.14-19.8-8.2c-5.07-5.07-8.2-12.07-8.2-19.8V132.732z"/>
	<path style="fill:#FF0536;" d="M256,352.802v-126.62h216v73.09h-79.5v18.17c0,17.4-14.1,31.5-31.5,31.5
		c-8.7,0-16.58-3.53-22.28-9.23s-9.22-13.57-9.22-22.27v-18.17h-55v24.82C274.5,336.862,266.91,347.853,256,352.802z"/>
</g>
<g>
</g>
<g>
</g>
<g>
</g>
<g>
</g>
<g>
</g>
<g>
</g>
<g>
</g>
<g>
</g>
<g>
</g>
<g>
</g>
<g>
</g>
<g>
</g>
<g>
</g>
<g>
</g>
<g>
</g>
</svg>
