<?xml version="1.0" encoding="iso-8859-1"?>
<!-- Generator: Adobe Illustrator 19.0.0, SVG Export Plug-In . SVG Version: 6.00 Build 0)  -->
<svg version="1.1" id="Capa_1" xmlns="http://www.w3.org/2000/svg" xmlns:xlink="http://www.w3.org/1999/xlink" x="0px" y="0px"
	 viewBox="0 0 511.998 511.998" style="enable-background:new 0 0 511.998 511.998;" xml:space="preserve">
<circle style="fill:#FF525D;" cx="255.999" cy="255.999" r="255.999"/>
<path style="fill:#F9EED7;" d="M462.882,76.173v330.646c-46.56,63.759-121.887,105.179-206.878,105.179
	S95.685,470.578,49.125,406.819V76.173C49.125,34.105,83.22,0,125.297,0h261.411C428.776,0,462.882,34.105,462.882,76.173z"/>
<path style="fill:#E8DBC4;" d="M156.467,0c-39.831,0-72.516,30.584-75.87,69.548c-0.199,2.184-0.293,4.389-0.293,6.625v366.005
	c-11.442-10.783-21.88-22.632-31.18-35.359V76.173C49.125,34.105,83.22,0,125.297,0H156.467z"/>
<rect x="49.12" y="212.176" style="fill:#D6C8B0;" width="413.757" height="18.807"/>
<g>
	<path style="fill:#5C5E70;" d="M245.442,157.576l-126.499-8.188c-12.281-0.795-22.677,8.952-22.677,21.257l0,0
		c0,12.306,10.398,22.052,22.677,21.257l126.499-8.188c6.89-0.446,12.25-6.165,12.25-13.07l0,0
		C257.693,163.741,252.332,158.022,245.442,157.576z"/>
	<path style="fill:#5C5E70;" d="M245.442,259.448l-126.499-8.188c-12.281-0.795-22.677,8.952-22.677,21.257l0,0
		c0,12.306,10.398,22.052,22.677,21.257l126.499-8.188c6.89-0.446,12.25-6.165,12.25-13.07l0,0
		C257.693,265.613,252.332,259.894,245.442,259.448z"/>
</g>
<g>
</g>
<g>
</g>
<g>
</g>
<g>
</g>
<g>
</g>
<g>
</g>
<g>
</g>
<g>
</g>
<g>
</g>
<g>
</g>
<g>
</g>
<g>
</g>
<g>
</g>
<g>
</g>
<g>
</g>
</svg>
